Body of Proof S01E07 HDTV DD5.1 ENG+NL Subs

Verenigde Staten ~ 60 minuten per aflevering ~ gecreëerd door Chris Murphey ~ met Windell Middlebrooks, Dana Delany en Jeri Ryan.

Een vader wordt neergestoken aangetroffen in zijn huis in de Piladelphia buitenwijken; Kate neemt een raadgevnede rol op zich ten opzichte van Megan's ex-man.

Bestandsformaat: .MKV
Bestandsgrootte: 1,09 GB
Taal: Engels in DD5.1
Ondertitelingen:Nederlands custom door wivr (in te stellen)
Categorie : Serie
Beelformaat: 16:9
Bron : HDTV
Menu: Nee
Extra's: Nee
Genre : Misdaad ~ Drama
Weblink :  http://www.imdb.com/title/tt1587669/

~~~~~~~~~~~~~~~~~~~~~~
USA  ~ 60 minutes per episode ~ created by Chris Murphy ~ with Windell Middlebrooks, Dana Delany and Jeri Ryan

A father is found stabbed to death in his home in the Philadelphia suburbs; Kate takes a consulting role in a case with Megan's ex-husband.

File Format: .MKV
File size: 1.09 GB
Language: English in DD5.1
Subtitles: Dutch custom by wivr (selectable)
Category : Series
Format : 16:9
Source : HDTV
Menu: No
Extras: No
Genre : Drama ~ Crime
Weblink :  http://www.imdb.com/title/tt1587669/

Video and audio information:
~~~~~~~~~~~~~~~~~~~~~~
Video
ID                               : 1
Format                           : AVC
Format/Info                      : Advanced Video Codec
Format profile                   : High@L4.1
Format settings, CABAC           : Yes
Format settings, ReFrames        : 8 frames
Format settings, GOP             : M=6, N=9
Codec ID                         : V_MPEG4/ISO/AVC
Duration                         : 42mn 39s
Bit rate                         : 3 281 Kbps
Width                            : 1 280 pixels
Height                           : 720 pixels
Display aspect ratio             : 16:9
Frame rate                       : 23.976 fps
Color space                      : YUV
Chroma subsampling               : 4:2:0
Bit depth                        : 8 bits
Scan type                        : Progressive
Bits/(Pixel*Frame)               : 0.148
Stream size                      : 979 MiB (88%)
Writing library                  : x264 core 113 r1884 7313bb5
Encoding settings                : cabac=1 / ref=8 / deblock=1:0:0 / analyse=0x3:0x113 / me=umh / subme=9 / psy=1 / psy_rd=1.00:0.00 / mixed_ref=1 / me_range=24 / chroma_me=1 / trellis=1 / 8x8dct=1 / cqm=0 / deadzone=21,11 / fast_pskip=0 / chroma_qp_offset=-2 / threads=12 / sliced_threads=0 / nr=0 / decimate=1 / interlaced=0 / constrained_intra=0 / bframes=5 / b_pyramid=2 / b_adapt=1 / b_bias=0 / direct=1 / weightb=1 / open_gop=0 / weightp=2 / keyint=250 / keyint_min=23 / scenecut=40 / intra_refresh=0 / rc_lookahead=40 / rc=2pass / mbtree=1 / bitrate=3281 / ratetol=1.0 / qcomp=0.60 / qpmin=0 / qpmax=69 / qpstep=4 / cplxblur=20.0 / qblur=0.5 / ip_ratio=1.40 / aq=1:1.00
Language                         : English

Audio
ID                               : 2
Format                           : AC-3
Format/Info                      : Audio Coding 3
Mode extension                   : CM (complete main)
Codec ID                         : A_AC3
Duration                         : 42mn 39s
Bit rate mode                    : Constant
Bit rate                         : 384 Kbps
Channel(s)                       : 6 channels
Channel positions                : Front: L C R, Side: L R, LFE
Sampling rate                    : 48.0 KHz
Bit depth                        : 16 bits
Compression mode                 : Lossy
Stream size                      : 117 MiB (10%)

~~~~~~~~~~~~~~~
Hornigold TBS
~~~~~~~~~~~~~~~